HIERARCHY
ROOT Hips
{
	OFFSET 0.000000 35.082581 0.000000
	CHANNELS 6 Xposition Yposition Zposition Xrotation Yrotation Zrotation 
	JOINT Spine
	{
		OFFSET 0.000000 6.876099 0.125700
		CHANNELS 3 Xrotation Yrotation Zrotation
		JOINT Spine1
		{
			OFFSET 0.000000 5.730043 0.104720
			CHANNELS 3 Xrotation Yrotation Zrotation
			JOINT Spine1_split
			{
				OFFSET 0.000000 5.730043 0.104720
				CHANNELS 3 Xrotation Yrotation Zrotation
				JOINT Spine2
				{
					OFFSET 0.000000 5.730043 0.104720
					CHANNELS 3 Xrotation Yrotation Zrotation
					JOINT Neck
					{
						OFFSET 0.000000 10.314075 0.188496
						CHANNELS 3 Xrotation Yrotation Zrotation
						JOINT Head
						{
							OFFSET 0.000000 7.643700 -2.377400
							CHANNELS 3 Xrotation Yrotation Zrotation
							JOINT HeadTop_End
							{
								OFFSET 0.000000 43.788605 -13.619600
								CHANNELS 3 Xrotation Yrotation Zrotation
								End Site
								{
									OFFSET 0.000000 0.000000 0.000000
								}
							}
						}
					}
					JOINT LeftShoulder
					{
						OFFSET 2.196100 4.412489 0.087492
						CHANNELS 3 Xrotation Yrotation Zrotation
						JOINT LeftShoulder_split
						{
							OFFSET 2.196100 4.412489 0.087492
							CHANNELS 3 Xrotation Yrotation Zrotation
							JOINT LeftArm
							{
								OFFSET 8.771219 -2.981674 -0.026999
								CHANNELS 3 Xrotation Yrotation Zrotation
								JOINT LeftForeArm
								{
									OFFSET 8.512804 0.000000 -0.000000
									CHANNELS 3 Xrotation Yrotation Zrotation
									JOINT LeftHand
									{
										OFFSET 18.484802 0.000000 -0.000000
										CHANNELS 3 Xrotation Yrotation Zrotation
										JOINT LeftHandThumb1
										{
											OFFSET 2.499420 -1.158070 2.653252
											CHANNELS 3 Xrotation Yrotation Zrotation
											JOINT LeftHandThumb2
											{
												OFFSET 2.370079 -1.368366 1.368366
												CHANNELS 3 Xrotation Yrotation Zrotation
												JOINT LeftHandThumb3
												{
													OFFSET 2.676727 -1.545410 1.545409
													CHANNELS 3 Xrotation Yrotation Zrotation
													JOINT LeftHandThumb4
													{
														OFFSET 1.692226 -0.977005 0.977007
														CHANNELS 3 Xrotation Yrotation Zrotation
														End Site
														{
															OFFSET 0.000000 0.000000 0.000000
														}
													}
												}
											}
										}
										JOINT LeftHandIndex1
										{
											OFFSET 7.924831 -0.457527 2.345128
											CHANNELS 3 Xrotation Yrotation Zrotation
											JOINT LeftHandIndex2
											{
												OFFSET 3.643303 0.000000 0.000000
												CHANNELS 3 Xrotation Yrotation Zrotation
												JOINT LeftHandIndex3
												{
													OFFSET 3.810799 0.000000 0.000000
													CHANNELS 3 Xrotation Yrotation Zrotation
													JOINT LeftHandIndex4
													{
														OFFSET 2.403702 0.000000 0.000000
														CHANNELS 3 Xrotation Yrotation Zrotation
														End Site
														{
															OFFSET 0.000000 0.000000 0.000000
														}
													}
												}
											}
										}
										JOINT LeftHandMiddle1
										{
											OFFSET 8.563995 0.000000 -0.000000
											CHANNELS 3 Xrotation Yrotation Zrotation
											JOINT LeftHandMiddle2
											{
												OFFSET 3.861618 0.000000 0.000000
												CHANNELS 3 Xrotation Yrotation Zrotation
												JOINT LeftHandMiddle3
												{
													OFFSET 3.701603 0.000000 0.000000
													CHANNELS 3 Xrotation Yrotation Zrotation
													JOINT LeftHandMiddle4
													{
														OFFSET 2.322544 0.000000 0.000000
														CHANNELS 3 Xrotation Yrotation Zrotation
														End Site
														{
															OFFSET 0.000000 0.000000 0.000000
														}
													}
												}
											}
										}
										JOINT LeftHandRing1
										{
											OFFSET 8.426460 -0.424637 -3.286992
											CHANNELS 3 Xrotation Yrotation Zrotation
											JOINT LeftHandRing2
											{
												OFFSET 3.126408 0.000000 0.000000
												CHANNELS 3 Xrotation Yrotation Zrotation
												JOINT LeftHandRing3
												{
													OFFSET 3.085026 0.000000 0.000000
													CHANNELS 3 Xrotation Yrotation Zrotation
													JOINT LeftHandRing4
													{
														OFFSET 1.644005 0.000000 0.000000
														CHANNELS 3 Xrotation Yrotation Zrotation
														End Site
														{
															OFFSET 0.000000 0.000000 0.000000
														}
													}
												}
											}
										}
									}
								}
							}
						}
					}
					JOINT RightShoulder
					{
						OFFSET -2.196100 4.412496 0.070690
						CHANNELS 3 Xrotation Yrotation Zrotation
						JOINT RightShoulder_split
						{
							OFFSET -2.196100 4.412496 0.070690
							CHANNELS 3 Xrotation Yrotation Zrotation
							JOINT RightArm
							{
								OFFSET -8.771282 -2.981682 -0.094208
								CHANNELS 3 Xrotation Yrotation Zrotation
								JOINT RightForeArm
								{
									OFFSET -8.494598 0.000000 0.000000
									CHANNELS 3 Xrotation Yrotation Zrotation
									JOINT RightHand
									{
										OFFSET -18.483803 0.000000 0.000001
										CHANNELS 3 Xrotation Yrotation Zrotation
										JOINT RightHandThumb1
										{
											OFFSET -2.527351 -1.008072 2.575253
											CHANNELS 3 Xrotation Yrotation Zrotation
											JOINT RightHandThumb2
											{
												OFFSET -2.321518 -1.340328 1.340329
												CHANNELS 3 Xrotation Yrotation Zrotation
												JOINT RightHandThumb3
												{
													OFFSET -2.657753 -1.534454 1.534455
													CHANNELS 3 Xrotation Yrotation Zrotation
													JOINT RightHandThumb4
													{
														OFFSET -1.807510 -1.043568 1.043567
														CHANNELS 3 Xrotation Yrotation Zrotation
														End Site
														{
															OFFSET 0.000000 0.000000 0.000000
														}
													}
												}
											}
										}
										JOINT RightHandIndex1
										{
											OFFSET -8.811420 0.015533 2.887987
											CHANNELS 3 Xrotation Yrotation Zrotation
											JOINT RightHandIndex2
											{
												OFFSET -3.537502 0.000000 0.000000
												CHANNELS 3 Xrotation Yrotation Zrotation
												JOINT RightHandIndex3
												{
													OFFSET -3.356201 0.000000 0.000000
													CHANNELS 3 Xrotation Yrotation Zrotation
													JOINT RightHandIndex4
													{
														OFFSET -1.933098 0.000000 0.000000
														CHANNELS 3 Xrotation Yrotation Zrotation
														End Site
														{
															OFFSET 0.000000 0.000000 0.000000
														}
													}
												}
											}
										}
										JOINT RightHandMiddle1
										{
											OFFSET -8.178135 0.000000 0.000000
											CHANNELS 3 Xrotation Yrotation Zrotation
											JOINT RightHandMiddle2
											{
												OFFSET -3.901302 0.000000 0.000000
												CHANNELS 3 Xrotation Yrotation Zrotation
												JOINT RightHandMiddle3
												{
													OFFSET -3.909599 0.000000 0.000000
													CHANNELS 3 Xrotation Yrotation Zrotation
													JOINT RightHandMiddle4
													{
														OFFSET -2.376003 0.000000 0.000000
														CHANNELS 3 Xrotation Yrotation Zrotation
														End Site
														{
															OFFSET 0.000000 0.000000 0.000000
														}
													}
												}
											}
										}
										JOINT RightHandRing1
										{
											OFFSET -7.559013 0.014137 -2.865403
											CHANNELS 3 Xrotation Yrotation Zrotation
											JOINT RightHandRing2
											{
												OFFSET -3.449306 0.000000 0.000000
												CHANNELS 3 Xrotation Yrotation Zrotation
												JOINT RightHandRing3
												{
													OFFSET -3.362106 0.000000 0.000000
													CHANNELS 3 Xrotation Yrotation Zrotation
													JOINT RightHandRing4
													{
														OFFSET -2.076401 0.000000 0.000000
														CHANNELS 3 Xrotation Yrotation Zrotation
														End Site
														{
															OFFSET 0.000000 0.000000 0.000000
														}
													}
												}
											}
										}
									}
								}
							}
						}
					}
				}
			}
		}
	}
	JOINT LeftUpLeg
	{
		OFFSET 10.205400 -3.823500 0.155100
		CHANNELS 3 Xrotation Yrotation Zrotation
		JOINT LeftLeg
		{
			OFFSET 0.708757 -12.982077 0.567790
			CHANNELS 3 Xrotation Yrotation Zrotation
			JOINT LeftFoot
			{
				OFFSET -0.708756 -10.717838 -2.184338
				CHANNELS 3 Xrotation Yrotation Zrotation
				JOINT LeftToeBase
				{
					OFFSET 0.108149 -7.191104 7.560241
					CHANNELS 3 Xrotation Yrotation Zrotation
					JOINT LeftToe_End
					{
						OFFSET 0.070230 0.081724 4.490308
						CHANNELS 3 Xrotation Yrotation Zrotation
						End Site
						{
							OFFSET 0.000000 0.000000 0.000000
						}
					}
				}
			}
		}
	}
	JOINT RightUpLeg
	{
		OFFSET -10.205400 -3.823500 0.005500
		CHANNELS 3 Xrotation Yrotation Zrotation
		JOINT RightLeg
		{
			OFFSET -0.708756 -12.982134 0.610632
			CHANNELS 3 Xrotation Yrotation Zrotation
			JOINT RightFoot
			{
				OFFSET 0.708754 -10.717769 -1.945823
				CHANNELS 3 Xrotation Yrotation Zrotation
				JOINT RightToeBase
				{
					OFFSET -0.108140 -7.191069 7.372968
					CHANNELS 3 Xrotation Yrotation Zrotation
					JOINT RightToe_End
					{
						OFFSET -0.070227 0.081735 4.479403
						CHANNELS 3 Xrotation Yrotation Zrotation
						End Site
						{
							OFFSET 0.000000 0.000000 0.000000
						}
					}
				}
			}
		}
	}
}
MOTION
Frames: 4
Frame Time: 0.016667
7.803144 29.171379 -8.167834 155.364810 -33.462702 160.184930 36.358828 3.199283 9.479489 -9.351832 -3.570434 1.181063 0.000000 0.000000 0.000000 -9.435594 -2.352111 2.017861 -12.226145 -7.455013 -5.693964 -19.356835 -12.917812 9.381450 0.000000 -0.000000 0.000000 5.744833 -10.522750 24.025846 0.000000 0.000000 0.000000 -67.510601 -3.722612 -45.267973 1.348456 -68.597646 4.202972 -49.957318 9.172192 6.229538 17.551621 -5.699228 -12.932280 10.850486 26.127758 8.644852 20.927000 51.115862 0.218769 -0.000001 -0.000004 0.000001 13.980891 1.201511 -55.004367 0.370823 1.161733 -65.441893 1.983970 2.148003 -57.665122 -0.000001 0.000000 0.000001 7.504734 1.174463 -63.778483 1.807822 1.475695 -64.567978 0.130379 -0.912240 -43.272510 -0.000001 0.000001 -0.000002 8.574354 2.179113 -75.148979 -0.207655 1.009267 -57.855063 0.443081 1.742200 -53.581270 0.000001 0.000000 -0.000001 8.424601 8.375895 -5.507304 0.000000 0.000000 0.000000 -1.238753 1.267734 68.329178 13.833020 26.209140 -4.662802 1.309576 4.198881 -0.028678 18.220800 -5.165851 -16.100677 -6.245494 -30.512528 3.865918 -4.832681 -8.294469 3.873374 0.000002 0.000000 -0.000000 8.324407 -2.978346 13.360770 -2.420661 -1.364222 30.156477 -1.107038 -5.091582 19.201813 0.000002 -0.000001 -0.000001 -0.657845 -4.404958 22.423721 0.269048 -5.521318 37.097257 -0.665470 -0.398254 22.627814 0.000000 0.000001 0.000000 -4.177272 -8.849775 22.910743 4.057599 -1.935991 44.316658 2.658938 -1.335694 28.532012 0.000003 -0.000001 -0.000001 9.108901 40.113049 10.787222 13.351610 17.959465 1.322912 -19.150233 20.031423 -38.213078 -0.292614 -0.111916 -0.580080 0.000000 0.000000 -0.000000 -72.755448 17.797619 10.299188 35.463435 -0.251289 2.728346 11.317846 -4.849532 10.777807 -0.000187 0.062425 0.008412 0.000000 -0.000002 0.000000 
7.799824 29.220184 -8.177797 155.520388 -33.653708 160.357870 36.317574 3.237685 9.524702 -9.302412 -3.573413 1.240610 0.000000 0.000000 0.000000 -9.386057 -2.346657 2.077851 -12.663943 -9.245397 -5.425663 -18.143124 -14.473885 9.482514 -0.000001 -0.000000 0.000000 5.600712 -10.392674 23.545672 0.000000 0.000000 0.000000 -67.435052 -3.677392 -45.248166 1.632181 -68.445271 4.470474 -49.937122 9.068388 6.209542 17.551617 -5.699226 -12.932280 10.850487 26.127762 8.644852 20.926998 51.115862 0.218767 -0.000001 -0.000003 -0.000000 13.980888 1.201512 -55.004374 0.370823 1.161731 -65.441900 1.983969 2.148007 -57.665122 0.000002 -0.000001 0.000003 7.504734 1.174463 -63.778483 1.807823 1.475694 -64.567978 0.130380 -0.912242 -43.272513 -0.000000 0.000000 0.000002 8.574353 2.179113 -75.148979 -0.207654 1.009267 -57.855063 0.443081 1.742200 -53.581273 -0.000000 0.000000 -0.000000 8.387672 8.109949 -5.631596 0.000000 0.000000 0.000000 -1.325116 1.460293 68.468296 13.559638 26.271831 -4.380974 1.637687 4.236957 0.170615 18.207621 -5.153460 -16.107065 -6.281824 -30.420713 3.877071 -4.766652 -8.440355 3.821739 0.000001 -0.000000 0.000001 8.217436 -2.911568 13.348501 -2.416341 -1.394015 30.239891 -1.102650 -5.099066 19.228693 -0.000003 0.000001 -0.000000 -0.797134 -4.366863 22.488051 0.278297 -5.517107 37.121709 -0.665325 -0.403036 22.578727 0.000000 -0.000001 -0.000001 -4.248839 -8.728393 23.054462 4.015917 -2.019627 44.438908 2.657852 -1.342479 28.444248 0.000001 -0.000000 -0.000001 9.852102 39.960565 10.205891 12.285897 18.234968 1.581665 -18.563722 19.829339 -38.170895 -0.292599 -0.109478 -0.580995 -0.000000 0.000000 0.000000 -72.381632 17.697707 10.084313 35.476119 -0.214161 2.738233 11.192949 -4.764643 10.659232 -0.000198 0.062540 0.008456 0.000000 0.000000 0.000000 
7.800070 29.264183 -8.182798 155.650258 -33.837372 160.541875 36.244471 3.265982 9.570784 -9.262716 -3.564028 1.268313 0.000000 0.000000 0.000000 -9.346573 -2.337918 2.102958 -12.950600 -10.349949 -5.301796 -17.398327 -15.412057 9.443619 -0.000000 -0.000000 -0.000000 5.455859 -10.276582 23.062306 0.000000 0.000000 0.000000 -67.354531 -3.637389 -45.228068 1.900048 -68.291674 4.723986 -49.919705 8.973199 6.196798 17.551614 -5.699234 -12.932284 10.850485 26.127758 8.644853 20.926996 51.115862 0.218770 -0.000001 0.000004 -0.000000 13.980886 1.201512 -55.004371 0.370824 1.161733 -65.441900 1.983969 2.148006 -57.665122 -0.000000 -0.000000 0.000001 7.504732 1.174463 -63.778483 1.807822 1.475692 -64.567978 0.130380 -0.912242 -43.272510 0.000001 0.000000 0.000000 8.574353 2.179112 -75.148979 -0.207652 1.009268 -57.855063 0.443083 1.742197 -53.581270 -0.000002 -0.000000 0.000000 8.353443 7.968168 -5.710321 0.000000 0.000000 0.000000 -1.302541 1.649706 68.639248 13.413298 26.330413 -4.243892 1.725168 4.280989 0.377637 18.194480 -5.141159 -16.113446 -6.316166 -30.331607 3.889174 -4.703226 -8.581995 3.771495 -0.000002 0.000006 0.000004 8.114774 -2.847541 13.337012 -2.411882 -1.422822 30.319886 -1.098489 -5.106230 19.254510 0.000001 -0.000000 -0.000000 -0.930837 -4.330627 22.550032 0.287466 -5.512984 37.145151 -0.665215 -0.407902 22.531560 -0.000002 -0.000002 -0.000001 -4.318075 -8.612275 23.192553 3.976692 -2.100075 44.556223 2.656953 -1.349009 28.360004 0.000000 -0.000004 -0.000001 10.553590 39.785866 9.610384 11.272693 18.495835 1.835941 -18.010232 19.642770 -38.111014 -0.292632 -0.107027 -0.581935 0.000000 0.000001 0.000000 -72.057512 17.612790 9.786882 35.620031 -1.266634 2.672513 11.020247 -3.529028 10.464831 -0.000195 0.062656 0.008507 0.000000 0.000001 -0.000000 
7.801298 29.302490 -8.187762 155.768311 -34.019294 160.732533 36.157239 3.288467 9.616019 -9.227475 -3.548996 1.281477 0.000000 0.000000 0.000000 -9.311690 -2.327701 2.112159 -13.170385 -11.140846 -5.245222 -16.873786 -16.069921 9.340673 -0.000000 0.000000 -0.000000 5.312880 -10.162593 22.584201 0.000000 0.000000 0.000000 -67.273996 -3.603521 -45.213851 2.101665 -68.140426 4.908488 -49.904405 8.881487 6.194727 17.551619 -5.699232 -12.932283 10.850484 26.127758 8.644854 20.927000 51.115865 0.218778 -0.000001 -0.000002 -0.000000 13.980889 1.201511 -55.004371 0.370821 1.161732 -65.441900 1.983968 2.148003 -57.665115 0.000001 -0.000000 -0.000000 7.504733 1.174463 -63.778490 1.807822 1.475692 -64.567978 0.130379 -0.912240 -43.272517 -0.000001 -0.000000 -0.000001 8.574354 2.179113 -75.148979 -0.207653 1.009268 -57.855063 0.443082 1.742198 -53.581267 -0.000003 0.000001 -0.000002 8.320676 7.882596 -5.768194 0.000000 0.000000 0.000000 -1.231538 1.837858 68.824005 13.324726 26.387471 -4.172548 1.703412 4.326801 0.587468 18.181250 -5.128771 -16.119877 -6.348265 -30.245532 3.902233 -4.642593 -8.719073 3.722715 0.000002 0.000000 -0.000000 8.016900 -2.786390 13.326223 -2.407382 -1.450656 30.396217 -1.094601 -5.113037 19.279076 0.000003 -0.000001 0.000001 -1.058390 -4.296374 22.609337 0.296495 -5.508853 37.167588 -0.665099 -0.412769 22.486624 -0.000003 -0.000001 -0.000000 -4.384633 -8.501914 23.324309 3.940090 -2.176936 44.668088 2.656236 -1.355354 28.279669 0.000002 0.000001 0.000000 11.237848 39.598548 9.015340 10.289406 18.742094 2.087954 -17.477471 19.467960 -38.048020 -0.292620 -0.104516 -0.582848 -0.000000 0.000001 0.000000 -71.798505 17.509444 9.554826 35.715906 -1.073431 2.701031 10.896759 -3.564604 10.364993 -0.000183 0.062783 0.008542 0.000000 0.000001 -0.000000 
